<svg width="72" height="24" viewBox="0 0 72 24" fill="none" xmlns="http://www.w3.org/2000/svg">
<path d="M18.0742 20.9024C18.0742 20.6371 18.31 20.4322 18.5675 20.4962C19.9307 20.835 21.0743 21.729 21.7447 22.9245C21.8693 23.1465 21.7503 23.4195 21.5066 23.4936C20.5531 23.7831 19.5495 23.9574 18.5118 23.9999C18.2706 24.0099 18.0742 23.8137 18.0742 23.5722V20.9024Z" fill="#F7BA14"/>
<path d="M16.6219 23.4433C16.6219 23.7036 16.395 23.9063 16.1379 23.866C15.644 23.7886 15.1601 23.6811 14.6882 23.5455C14.5056 23.493 14.3828 23.3243 14.3828 23.1343V0.867515C14.3828 0.677614 14.5056 0.508829 14.6882 0.456394C15.1601 0.3208 15.644 0.213318 16.1379 0.135973C16.395 0.0957078 16.6219 0.298495 16.6219 0.558734V23.4433Z" fill="#11CDB5"/>
<path d="M12.9313 22.2029C12.9313 22.5216 12.6006 22.7311 12.3201 22.5798C11.8114 22.3056 11.3248 21.9955 10.8634 21.6535C10.7549 21.5729 10.6924 21.445 10.6924 21.3098V2.69112C10.6924 2.55593 10.7549 2.42802 10.8634 2.3475C11.3247 2.00539 11.8114 1.6955 12.3201 1.42127C12.6006 1.27003 12.9313 1.47949 12.9313 1.79821V22.2029Z" fill="#11CDB5"/>
<path d="M18.0742 17.099C18.0742 16.8446 18.292 16.6433 18.5442 16.6777C21.3919 17.0651 23.8058 18.8168 25.1057 21.2529C25.2032 21.4356 25.1489 21.6611 24.9802 21.7816C24.572 22.0729 24.1448 22.3394 23.7008 22.5786C23.4825 22.6963 23.2144 22.5964 23.0993 22.3767C22.1795 20.6212 20.4798 19.3389 18.4601 18.9903C18.2415 18.9525 18.0742 18.7676 18.0742 18.5459V17.099Z" fill="#F7BA14"/>
<path d="M18.0742 13.2076C18.0742 12.9574 18.2847 12.758 18.5338 12.7811C22.4365 13.1436 25.8249 15.2777 27.8877 18.3713C27.9828 18.5141 27.9813 18.7002 27.8834 18.8412C27.5562 19.3127 27.1958 19.7596 26.8061 20.1786C26.6082 20.3914 26.2632 20.3375 26.1126 20.0888C24.5029 17.4307 21.7183 15.5638 18.4787 15.208C18.2514 15.183 18.0742 14.9943 18.0742 14.7655V13.2076Z" fill="#F7BA14"/>
<path d="M9.24159 19.2977C9.24159 19.6926 8.76841 19.8738 8.52593 19.562C6.94344 17.5278 6.00098 14.971 6.00098 12.1941C6.00099 9.41716 6.94343 6.86039 8.52593 4.82612C8.76841 4.51439 9.24159 4.69554 9.24159 5.09047V19.2977Z" fill="#11CDB5"/>
<path d="M28.3968 7.39097C28.6031 7.13172 29.0138 7.16923 29.1386 7.47603C29.7068 8.87222 30.0199 10.3993 30.0199 11.9996C30.0199 13.5998 29.7068 15.127 29.1386 16.5232C29.0138 16.83 28.6031 16.8674 28.3968 16.6082C26.9818 14.8288 25.1459 13.399 23.0397 12.4694C22.6572 12.3006 22.6572 11.6986 23.0397 11.5298C25.1459 10.6001 26.9818 9.17039 28.3968 7.39097Z" fill="#8067F7"/>
<path d="M26.1128 3.9096C26.2634 3.66094 26.6084 3.60701 26.8063 3.81984C27.1961 4.23885 27.5563 4.68575 27.8835 5.1572C27.9813 5.29815 27.9829 5.48432 27.8878 5.62706C25.825 8.72081 22.4366 10.8548 18.5339 11.2173C18.2848 11.2404 18.0742 11.041 18.0742 10.7908V9.233C18.0742 9.00429 18.2515 8.81556 18.4788 8.79059C21.7185 8.43481 24.5031 6.56778 26.1128 3.9096Z" fill="#FF4275"/>
<path d="M23.0993 1.62297C23.2143 1.40325 23.4824 1.30326 23.7007 1.42095C24.1447 1.66024 24.572 1.92666 24.9802 2.21799C25.1488 2.33834 25.2032 2.56387 25.1056 2.74665C23.8057 5.18273 21.3919 6.9344 18.5441 7.32184C18.2919 7.35615 18.0742 7.15493 18.0742 6.90043V5.4537C18.0742 5.23183 18.2414 5.04701 18.4601 5.00926C20.4797 4.66058 22.1794 3.37845 23.0993 1.62297Z" fill="#FF4275"/>
<path d="M18.0742 0.428004C18.0742 0.186614 18.2706 -0.00953614 18.5118 0.000358635C19.5495 0.0429291 20.5532 0.217121 21.5066 0.506752C21.7503 0.580756 21.8693 0.853777 21.7447 1.07586C21.0743 2.27129 19.9307 3.1653 18.5675 3.50412C18.31 3.56809 18.0742 3.36316 18.0742 3.09789V0.428004Z" fill="#FF4275"/>
<path fill-rule="evenodd" clip-rule="evenodd" d="M68.1136 5.33594C68.3638 5.33594 68.5517 5.37574 68.6768 5.45538C68.8019 5.52363 68.8644 5.63168 68.8644 5.77953V9.26056H71.0144C71.1851 9.26056 71.3046 9.31171 71.3728 9.41407C71.4524 9.50508 71.4922 9.68143 71.4922 9.94305C71.4922 10.1933 71.4524 10.3697 71.3728 10.472C71.3046 10.5744 71.1851 10.6257 71.0144 10.6257H68.8644V15.7105C68.8644 16.0974 68.9157 16.3761 69.0181 16.5467C69.1319 16.7059 69.3195 16.7856 69.5811 16.7856C69.8313 16.7856 70.0532 16.7174 70.2466 16.5809C70.44 16.4443 70.639 16.2566 70.8438 16.0177C70.9575 15.8925 71.0714 15.8414 71.1851 15.8642C71.2988 15.8869 71.4127 15.9437 71.5264 16.0348C71.6743 16.1371 71.7539 16.2509 71.7654 16.3761C71.7881 16.4898 71.771 16.5979 71.7141 16.7003C71.5321 17.0302 71.3159 17.2974 71.0657 17.5023C70.8268 17.707 70.5708 17.8548 70.2977 17.9458C70.0248 18.0368 69.7404 18.0824 69.4446 18.0824C68.9897 18.0824 68.6086 17.9914 68.3014 17.8094C67.9943 17.6387 67.7611 17.3885 67.6018 17.0587C67.4626 16.7481 67.389 16.3773 67.3808 15.946C67.148 16.3421 66.8919 16.6847 66.612 16.9732C66.248 17.3486 65.8442 17.6274 65.4006 17.8094C64.9741 17.9889 64.4978 18.0796 63.9716 18.0821C63.9691 18.0821 63.9666 18.0823 63.964 18.0823C63.9633 18.0823 63.9625 18.0822 63.9618 18.0822C63.9579 18.0822 63.9541 18.0824 63.9502 18.0824C63.9458 18.0824 63.9414 18.0821 63.9371 18.082C63.6066 18.0793 63.3085 18.0285 63.0427 17.9288C62.7811 17.8378 62.5592 17.6899 62.3771 17.485C62.2065 17.269 62.0756 17.0017 61.9847 16.6832C61.8936 16.3532 61.8482 15.955 61.8482 15.4887V15.4746C61.5662 16.0571 61.2452 16.5397 60.8853 16.9221C60.5328 17.3088 60.1403 17.5989 59.7081 17.7923C59.3541 17.9506 58.9698 18.0438 58.5548 18.0726C58.5071 18.0788 58.4563 18.0823 58.4027 18.0823C58.3808 18.0823 58.3591 18.082 58.3375 18.0816C58.3167 18.082 58.2957 18.0824 58.2748 18.0824C58.2449 18.0824 58.2167 18.08 58.1901 18.0752C57.9328 18.0581 57.6964 18.0093 57.4813 17.9286C57.2197 17.8377 56.9979 17.6899 56.8159 17.485C56.6453 17.269 56.5144 17.0015 56.4234 16.6831C56.3324 16.3531 56.2869 15.9549 56.2869 15.4886V12.0929C56.2869 11.7062 56.23 11.382 56.1162 11.1204C56.0139 10.8474 55.8489 10.6426 55.6215 10.5061C55.394 10.3696 55.0867 10.3013 54.7 10.3013C54.4269 10.3013 54.1483 10.3639 53.8638 10.4891C53.5909 10.6028 53.3292 10.7848 53.079 11.0351C52.8401 11.2853 52.6126 11.5981 52.3965 11.9735C52.1918 12.3375 52.0154 12.7755 51.8675 13.2874V17.6045C51.8675 17.7524 51.8049 17.8604 51.6798 17.9286C51.5547 18.0083 51.3669 18.0481 51.1167 18.0481C50.8778 18.0481 50.6958 18.0083 50.5706 17.9286C50.4569 17.8604 50.4001 17.7524 50.3999 17.6045V15.7247C50.1496 16.1966 49.8711 16.5957 49.5641 16.9221C49.2115 17.3088 48.819 17.5989 48.3868 17.7923C48.0354 17.9495 47.654 18.0426 47.2424 18.0721C47.2072 18.0781 47.1709 18.0815 47.1339 18.0815C47.113 18.0815 47.0922 18.0808 47.0714 18.0804C47.0323 18.0816 46.993 18.0824 46.9535 18.0824C46.9134 18.0824 46.8762 18.078 46.8419 18.0693C45.7797 17.9838 44.9305 17.4378 44.2322 16.752C43.4839 16.0173 42.8465 15.059 42.267 14.2131C41.9219 13.7093 41.5982 13.2473 41.2747 12.8534C41.0465 13.1592 40.8051 13.4453 40.5458 13.6977C40.1909 14.0431 39.7955 14.3317 39.3496 14.5314V17.5474C39.3431 17.736 39.2913 17.8753 39.1939 17.9655C39.0897 18.0781 38.9335 18.1345 38.725 18.1345C38.5262 18.1345 38.3746 18.0781 38.2704 17.9655C38.1756 17.8688 38.1282 17.716 38.1282 17.5067V14.8255C37.9176 14.8367 37.6977 14.8306 37.4681 14.804C36.3899 14.6794 35.8947 13.6631 35.9901 12.7574C36.091 11.8006 36.7956 10.8637 38.1095 10.4246C38.1157 10.4225 38.122 10.4207 38.1282 10.4188V5.96378C38.1282 5.75451 38.1756 5.60158 38.2704 5.50498C38.3746 5.39229 38.5262 5.33594 38.725 5.33594C38.9335 5.33594 39.0897 5.39231 39.1939 5.50498C39.2912 5.59515 39.3431 5.73438 39.3496 5.92276V10.3052C39.985 10.3167 40.5483 10.5381 41.0471 10.8807C41.1551 10.7022 41.2647 10.5179 41.3769 10.3285C42.5023 8.42872 43.8862 5.99493 46.6989 5.54899C47.047 5.49382 47.3738 5.73122 47.429 6.07924C47.4841 6.42723 47.2468 6.7541 46.8987 6.80927C44.7773 7.14561 43.6738 8.95486 42.4748 10.9788C42.3232 11.2345 42.1692 11.4943 42.0107 11.752C42.4862 12.2827 42.9158 12.9022 43.3197 13.4919C43.9257 14.3764 44.4866 15.2136 45.1263 15.8416C45.7531 16.4572 46.3904 16.8055 47.1339 16.8055C47.1486 16.8055 47.1631 16.8061 47.1774 16.807C47.2097 16.8042 47.243 16.8026 47.2777 16.8026C47.6075 16.8026 47.9261 16.7286 48.2332 16.5808C48.5403 16.4328 48.8305 16.2054 49.1034 15.8983C49.3765 15.591 49.6325 15.2043 49.8714 14.7379C50.0543 14.372 50.2303 13.9626 50.3999 13.5099V9.44813C50.3999 9.30026 50.4569 9.19223 50.5706 9.12397C50.6958 9.04434 50.8778 9.00453 51.1167 9.00453C51.3669 9.00453 51.5547 9.04434 51.6798 9.12397C51.8049 9.19223 51.8675 9.30027 51.8675 9.44813V11.0179C52.0381 10.6539 52.2372 10.3468 52.4647 10.0966C52.6922 9.83492 52.9367 9.61876 53.1985 9.44813C53.46 9.26612 53.7331 9.13537 54.0175 9.05573C54.3018 8.97611 54.5977 8.93629 54.9048 8.93629C55.4622 8.9363 55.9513 9.03867 56.3722 9.24341C56.8045 9.4368 57.14 9.75532 57.3789 10.199C57.6293 10.6312 57.7543 11.2114 57.7543 11.9394V15.4374C57.7543 15.9378 57.8226 16.2906 57.9591 16.4953C58.0883 16.6891 58.3245 16.7911 58.6676 16.8014C58.973 16.7919 59.2687 16.7183 59.5544 16.5808C59.8615 16.4328 60.1517 16.2054 60.4247 15.8983C60.6977 15.591 60.9537 15.2043 61.1925 14.7379C61.4217 14.2797 61.64 13.7532 61.8482 13.1588V9.44824C61.8482 9.30037 61.905 9.19223 62.0188 9.12397C62.1439 9.04434 62.326 9.00453 62.5649 9.00453C62.8151 9.00454 63.0029 9.04436 63.128 9.12397C63.2531 9.19223 63.3156 9.30037 63.3156 9.44824V15.4375C63.3156 15.938 63.384 16.2907 63.5204 16.4954C63.6562 16.6991 63.9102 16.8014 64.2823 16.8024C64.6208 16.8014 64.948 16.7275 65.2642 16.5809C65.5713 16.4329 65.8613 16.2168 66.1343 15.9325C66.4073 15.648 66.6689 15.2839 66.9192 14.8403C67.0799 14.5556 67.2334 14.2403 67.38 13.8947V10.6257H66.066C65.8954 10.6257 65.7703 10.5744 65.6907 10.472C65.6224 10.3697 65.5882 10.1933 65.5882 9.94305C65.5882 9.68143 65.6224 9.50508 65.6907 9.41407C65.7703 9.31172 65.8955 9.26057 66.066 9.26056H67.38V5.77953C67.38 5.63168 67.4368 5.52363 67.5506 5.45538C67.6757 5.37576 67.8634 5.33594 68.1136 5.33594ZM38.1282 11.7958C37.5161 12.1109 37.2938 12.5611 37.2591 12.8911C37.2125 13.3338 37.4431 13.5166 37.6146 13.5364C37.7952 13.5573 37.9659 13.5601 38.1282 13.5465V11.7958ZM39.3496 13.0505C39.4536 12.97 39.5556 12.8809 39.6559 12.7833C39.8996 12.5461 40.1282 12.2661 40.3531 11.952C40.03 11.723 39.7052 11.594 39.3496 11.5821V13.0505Z" fill="#FF4275"/>
<path d="M62.5854 5.59766C62.9039 5.59766 63.1372 5.68872 63.2851 5.87072C63.4443 6.05273 63.524 6.3257 63.524 6.68969C63.5467 7.04233 63.4727 7.30973 63.3021 7.49174C63.1428 7.66236 62.9039 7.74766 62.5854 7.74766C62.267 7.74765 62.0281 7.66237 61.8688 7.49174C61.7095 7.30973 61.6299 7.04233 61.6299 6.68969C61.6299 6.3257 61.7096 6.05273 61.8688 5.87072C62.0281 5.68872 62.267 5.59767 62.5854 5.59766Z" fill="#FF4275"/>
</svg>
