<svg width="38" height="38" viewBox="0 0 38 38" fill="none" xmlns="http://www.w3.org/2000/svg">
<g clip-path="url(#clip0_445_58616)">
<rect x="1" y="1" width="36" height="36" rx="8" fill="#FFD9C0"/>
<path d="M27.4315 26.8134C35.6465 25.6756 44.4462 30.633 45.6822 39.5574C46.6664 46.6631 43.4297 53.5294 40.0232 58.96C37.9799 62.2176 35.6064 64.9019 33.1882 67.4382C30.7391 70.0068 28.3172 72.3534 25.9666 75.1031C25.1519 76.0565 24.1217 76.7514 22.8824 76.9209C21.6452 77.0899 20.4694 76.6979 19.4343 76.0099C16.4196 74.0059 13.4515 72.406 10.3962 70.5977C7.3799 68.8126 4.3684 66.8725 1.51709 64.2936C-3.23724 59.9932 -8.21838 54.2653 -9.20262 47.1594C-10.4387 38.235 -3.31783 31.0725 4.89716 29.9346C9.75671 29.2615 13.5166 30.2627 16.7529 32.6233C19.2255 29.472 22.5721 27.4865 27.4315 26.8134Z" fill="#FFF3EB"/>
<path d="M22.0726 12.6995H27.1072C27.6004 12.6995 28 13.1 28 13.5995V26.1995C28 26.6963 27.5905 27.0995 27.1072 27.0995H10.8928C10.775 27.0993 10.6585 27.0758 10.5498 27.0304C10.4411 26.985 10.3424 26.9186 10.2595 26.835C10.1765 26.7513 10.1109 26.6522 10.0664 26.5431C10.0219 26.4341 9.99931 26.3173 10 26.1995V13.5995C10 13.1027 10.4095 12.6995 10.8928 12.6995H15.9274L13.645 10.4171L14.9176 9.14453L18.4726 12.6995H19.5274L23.0824 9.14453L24.355 10.4171L22.0726 12.6995Z" fill="url(#paint0_linear_445_58616)"/>
</g>
<rect x="1" y="1" width="36" height="36" rx="8" stroke="#FFF3EB" stroke-width="2"/>
<defs>
<linearGradient id="paint0_linear_445_58616" x1="19" y1="9.14453" x2="19" y2="27.0995" gradientUnits="userSpaceOnUse">
<stop stop-color="#FDBF96"/>
<stop offset="0.5" stop-color="#FB9957"/>
<stop offset="1" stop-color="#FA7319"/>
</linearGradient>
<clipPath id="clip0_445_58616">
<rect x="1" y="1" width="36" height="36" rx="8" fill="white"/>
</clipPath>
</defs>
</svg>
