<svg width="38" height="38" viewBox="0 0 38 38" fill="none" xmlns="http://www.w3.org/2000/svg">
<g clip-path="url(#clip0_445_58612)">
<rect x="1" y="1" width="36" height="36" rx="8" fill="#FFD9E3"/>
<path d="M27.4315 26.8134C35.6465 25.6756 44.4462 30.633 45.6822 39.5574C46.6664 46.6631 43.4297 53.5294 40.0232 58.96C37.9799 62.2176 35.6064 64.9019 33.1882 67.4382C30.7391 70.0068 28.3172 72.3534 25.9666 75.1031C25.1519 76.0565 24.1217 76.7514 22.8824 76.9209C21.6452 77.0899 20.4694 76.6979 19.4343 76.0099C16.4196 74.0059 13.4515 72.406 10.3962 70.5977C7.3799 68.8126 4.3684 66.8725 1.51709 64.2936C-3.23724 59.9932 -8.21838 54.2653 -9.20262 47.1594C-10.4387 38.235 -3.31783 31.0725 4.89716 29.9346C9.75671 29.2615 13.5166 30.2627 16.7529 32.6233C19.2255 29.472 22.5721 27.4865 27.4315 26.8134Z" fill="#FFEBEC"/>
<path d="M23.5 15.25C23.5 15.4468 23.4874 15.6406 23.4629 15.8308C24.8284 16.6034 25.75 18.0691 25.75 19.75C25.75 22.2353 23.7353 24.25 21.25 24.25C20.724 24.25 20.2192 24.1598 19.75 23.9939V26.5H18.25V23.8002C17.6874 24.0878 17.0502 24.25 16.375 24.25C14.0968 24.25 12.25 22.4032 12.25 20.125C12.25 19.0356 12.6723 18.0447 13.3622 17.3074C13.6579 18.1174 14.1231 18.8458 14.7143 19.4492L15.7857 18.3993C15.243 17.8455 14.8428 17.1533 14.643 16.3802C14.5496 16.0191 14.5 15.6403 14.5 15.25C14.5 12.7647 16.5147 10.75 19 10.75C21.4853 10.75 23.5 12.7647 23.5 15.25Z" fill="url(#paint0_linear_445_58612)"/>
</g>
<rect x="1" y="1" width="36" height="36" rx="8" stroke="#FFEBEC" stroke-width="2"/>
<defs>
<linearGradient id="paint0_linear_445_58612" x1="19" y1="10.75" x2="19" y2="26.5" gradientUnits="userSpaceOnUse">
<stop stop-color="#FFD8E2"/>
<stop offset="0.5" stop-color="#FF8DAC"/>
<stop offset="1" stop-color="#FF4275"/>
</linearGradient>
<clipPath id="clip0_445_58612">
<rect x="1" y="1" width="36" height="36" rx="8" fill="white"/>
</clipPath>
</defs>
</svg>
